<svg xmlns="http://www.w3.org/2000/svg" width="32" height="32" viewBox="0 0 256 256"><g fill="currentColor"><path d="M224 128a96 96 0 0 1-144.07 83.11l-37.39 12.47a8 8 0 0 1-10.12-10.12l12.47-37.39A96 96 0 1 1 224 128Z" opacity=".2"/><path d="M128 24a104 104 0 0 0-91.82 152.88l-11.35 34.05a16 16 0 0 0 20.24 20.24l34.05-11.35A104 104 0 1 0 128 24Zm0 192a87.87 87.87 0 0 1-44.06-11.81a8 8 0 0 0-4-1.08a7.85 7.85 0 0 0-2.53.42L40 216l12.47-37.4a8 8 0 0 0-.66-6.54A88 88 0 1 1 128 216Zm12-88a12 12 0 1 1-12-12a12 12 0 0 1 12 12Zm-44 0a12 12 0 1 1-12-12a12 12 0 0 1 12 12Zm88 0a12 12 0 1 1-12-12a12 12 0 0 1 12 12Z"/></g></svg>